<?xml version="1.0" encoding="utf-8"?>
<!-- Generator: Adobe Illustrator 14.0.0, SVG Export Plug-In . SVG Version: 6.00 Build 43363)  -->
<!DOCTYPE svg PUBLIC "-//W3C//DTD SVG 1.1//EN" "http://www.w3.org/Graphics/SVG/1.1/DTD/svg11.dtd">
<svg version="1.1" id="Layer_1" xmlns="http://www.w3.org/2000/svg" xmlns:xlink="http://www.w3.org/1999/xlink" x="0px" y="0px"
	 width="954px" height="36px" viewBox="0 0 954 36" enable-background="new 0 0 954 36" xml:space="preserve">
<path fill="#FFFFFF" d="M670.629,14.189l-1.254,0.686l-0.651-0.712l-102.277-1.421l-6.612,0.925l-0.426-1.022L540,12.375
	c-0.851,3.065-4.66,4.5-9,4.5h-34.159c-0.816-1.117-2.825-2.113-5.64-2.883L490,14.25v-0.561c-3.518-0.82-8.049-1.314-13-1.314
	c-4.938,0-9.458,0.491-12.972,1.307l0.145,0.663l-1.981-0.174c-2.491,0.743-4.278,1.671-5.034,2.704H423c-4.327,0-8.136-1.448-9-4.5
	l-10.358,0.147l-3.368,1.684l-3.182-1.591L18,18l202.369,2.874l1.298-0.291l0.351,0.313l102.581,1.457l6.652-0.729l2.385,0.857
	L414,23.625c0.864-3.053,4.673-4.5,9-4.5h34.169c0.731,0.991,2.396,1.887,4.733,2.613L464,21.167l1.358,1.431
	c3.295,0.646,7.304,1.027,11.642,1.027c9.798,0,17.967-1.934,19.844-4.5H531c4.34,0,8.149,1.436,9,4.5l33.261-0.462L576,22.167
	l2.165,0.929l45.527-0.634l4.808-1.212l5.892,1.063L945,18L670.629,14.189z"/>
</svg>
