<?xml version="1.0" encoding="utf-8"?>
<!-- Generator: Adobe Illustrator 14.0.0, SVG Export Plug-In . SVG Version: 6.00 Build 43363)  -->
<!DOCTYPE svg PUBLIC "-//W3C//DTD SVG 1.1//EN" "http://www.w3.org/Graphics/SVG/1.1/DTD/svg11.dtd">
<svg version="1.1" id="Layer_1" xmlns="http://www.w3.org/2000/svg" xmlns:xlink="http://www.w3.org/1999/xlink" x="0px" y="0px"
	 width="378px" height="36px" viewBox="0 0 378 36" enable-background="new 0 0 378 36" xml:space="preserve">
<g>
	<path fill="#FFFFFF" d="M1.534,31.562c-0.608,0-0.76-0.493-0.76-0.798c0-1.025,0.57-0.987,1.71-1.14
		c1.216-0.151,1.596-0.531,2.166-1.823c1.824-4.065,3.762-8.131,5.813-12.158c5.699-10.829,5.434-10.448,5.889-10.829
		c0.266-0.189,0.57-0.304,0.912-0.304c0.988,0,1.444,1.064,1.596,1.444l5.471,12.613c4.142,10.069,3.989,9.841,4.217,10.183
		c0.95,1.406,2.622,0.57,2.85,1.482c0.038,0.151,0.076,0.418,0.076,0.493c0,0.494-0.266,0.836-0.76,0.836
		c-0.152,0-2.052-0.228-4.37-0.228c-2.735,0-4.065,0.228-4.521,0.228c-0.532,0-0.76-0.266-0.76-0.646
		c0-1.178,0.418-1.063,2.242-1.292c0.19-0.038,0.76-0.076,0.76-0.722c0-0.684-1.368-5.205-2.85-8.587
		c-0.152-0.342-0.342-0.38-0.684-0.38h-8.929c-0.418,0-0.646,0.038-0.874,0.456c-1.862,3.457-3.305,7.447-3.305,8.207
		c0,1.063,0.798,1.025,2.394,1.216c0.342,0.038,0.836,0.151,0.836,0.911c0,0.494-0.342,0.836-0.836,0.836
		c-0.418,0-1.672-0.228-4.18-0.228C3.395,31.334,1.647,31.562,1.534,31.562z M20.113,17.694c0-0.38-2.773-6.915-3.344-7.827
		c-0.114-0.19-0.228-0.266-0.418-0.266c-0.342,0-0.57,0.38-0.722,0.646c-2.355,4.407-3.875,7.333-3.875,7.561
		c0,0.076,0.076,0.152,0.228,0.152h7.789C19.961,17.96,20.113,17.922,20.113,17.694z"/>
	<path fill="#FFFFFF" d="M58.226,9.449c-0.076,3.42-0.152,6.877-0.152,10.297c0,6.421,0.152,9.612,0.152,10.676
		c0,0.532,0,1.786-0.76,1.786c-0.38,0-0.798-0.38-1.862-1.596l-7.865-8.967c-7.675-8.549-8.283-9.271-8.435-9.271
		c-0.076,0-0.114,0.114-0.152,0.151c-0.304,4.445-0.494,8.854-0.494,13.488v1.102c0,1.977,0.114,2.356,1.71,2.47
		c0.494,0,2.052,0.19,2.317,0.267c0.152,0.075,0.494,0.189,0.494,0.987c0,0.418-0.228,0.722-0.646,0.722
		c-0.152,0-2.166-0.228-4.635-0.228c-2.508,0-4.483,0.228-4.673,0.228c-0.456,0-0.798-0.304-0.798-0.76
		c0-0.113,0.076-0.836,0.57-0.987c0.836-0.267,2.622,0.038,3.229-1.216c0.19-0.456,0.152-0.342,1.064-17.857v-0.114v-0.038
		c0-0.342-0.038-0.569-1.254-1.672c-0.266-0.266-1.292-1.481-3.381-1.634c-0.38,0-0.684-0.113-0.684-0.836
		c0-0.798,0.342-0.987,0.836-0.987h4.673c0.798,0,1.102,0.228,1.52,0.722l5.965,6.915l3.458,3.875
		c6.877,7.447,7.181,7.827,7.447,7.827c0.228,0,0.266-0.189,0.266-0.38c0.038-1.368,0.076-2.697,0.076-4.065
		c0-3.875-0.114-7.599-0.342-11.322C55.794,7.397,55.072,7.359,53.4,7.17c-0.266-0.038-0.836-0.152-0.836-0.798
		c0-0.38,0.266-0.912,1.102-0.912c0.342,0,1.444,0.114,3.647,0.114c2.166,0,3.229-0.114,3.572-0.114
		c0.418,0,0.798,0.228,0.798,0.874C61.683,8.31,58.226,5.764,58.226,9.449z"/>
	<path fill="#FFFFFF" d="M88.587,9.449c-0.076,3.42-0.152,6.877-0.152,10.297c0,6.421,0.152,9.612,0.152,10.676
		c0,0.532,0,1.786-0.76,1.786c-0.38,0-0.798-0.38-1.861-1.596l-7.865-8.967c-7.675-8.549-8.283-9.271-8.435-9.271
		c-0.076,0-0.114,0.114-0.152,0.151c-0.304,4.445-0.494,8.854-0.494,13.488v1.102c0,1.977,0.114,2.356,1.71,2.47
		c0.494,0,2.052,0.19,2.317,0.267c0.152,0.075,0.494,0.189,0.494,0.987c0,0.418-0.228,0.722-0.646,0.722
		c-0.152,0-2.166-0.228-4.635-0.228c-2.508,0-4.483,0.228-4.673,0.228c-0.456,0-0.798-0.304-0.798-0.76
		c0-0.113,0.076-0.836,0.57-0.987c0.836-0.267,2.622,0.038,3.229-1.216c0.19-0.456,0.152-0.342,1.064-17.857v-0.114v-0.038
		c0-0.342-0.038-0.569-1.254-1.672c-0.266-0.266-1.292-1.481-3.381-1.634c-0.38,0-0.684-0.113-0.684-0.836
		c0-0.798,0.342-0.987,0.836-0.987h4.673c0.798,0,1.102,0.228,1.52,0.722l5.965,6.915l3.458,3.875
		c6.877,7.447,7.181,7.827,7.447,7.827c0.228,0,0.266-0.189,0.266-0.38c0.038-1.368,0.076-2.697,0.076-4.065
		c0-3.875-0.114-7.599-0.342-11.322c-0.076-1.634-0.798-1.672-2.469-1.861c-0.266-0.038-0.836-0.152-0.836-0.798
		c0-0.38,0.266-0.912,1.102-0.912c0.342,0,1.444,0.114,3.647,0.114c2.166,0,3.229-0.114,3.572-0.114
		c0.418,0,0.798,0.228,0.798,0.874C92.045,8.31,88.587,5.764,88.587,9.449z"/>
	<path fill="#FFFFFF" d="M91.555,31.562c-0.608,0-0.76-0.493-0.76-0.798c0-1.025,0.57-0.987,1.71-1.14
		c1.216-0.151,1.596-0.531,2.166-1.823c1.824-4.065,3.762-8.131,5.813-12.158c5.699-10.829,5.434-10.448,5.889-10.829
		c0.266-0.189,0.57-0.304,0.912-0.304c0.988,0,1.444,1.064,1.596,1.444l5.471,12.613c4.142,10.069,3.989,9.841,4.217,10.183
		c0.95,1.406,2.622,0.57,2.85,1.482c0.038,0.151,0.076,0.418,0.076,0.493c0,0.494-0.266,0.836-0.76,0.836
		c-0.152,0-2.052-0.228-4.37-0.228c-2.735,0-4.065,0.228-4.521,0.228c-0.532,0-0.76-0.266-0.76-0.646
		c0-1.178,0.418-1.063,2.242-1.292c0.19-0.038,0.76-0.076,0.76-0.722c0-0.684-1.368-5.205-2.85-8.587
		c-0.152-0.342-0.342-0.38-0.684-0.38h-8.929c-0.418,0-0.646,0.038-0.874,0.456c-1.862,3.457-3.305,7.447-3.305,8.207
		c0,1.063,0.798,1.025,2.394,1.216c0.342,0.038,0.836,0.151,0.836,0.911c0,0.494-0.342,0.836-0.836,0.836
		c-0.418,0-1.672-0.228-4.18-0.228C93.417,31.334,91.669,31.562,91.555,31.562z M110.134,17.694c0-0.38-2.773-6.915-3.344-7.827
		c-0.114-0.19-0.228-0.266-0.418-0.266c-0.342,0-0.57,0.38-0.722,0.646c-2.355,4.407-3.875,7.333-3.875,7.561
		c0,0.076,0.076,0.152,0.228,0.152h7.789C109.982,17.96,110.134,17.922,110.134,17.694z"/>
	<path fill="#FFFFFF" d="M159.723,30.65c0-1.71,3.61-0.076,4.028-2.318c0.038-0.228,0.038-0.493,0.038-0.722v-8.093
		c0-2.621-0.076-5.965-0.114-6.079c-0.038-0.189-0.152-0.228-0.266-0.228c-0.266,0-0.418,0.266-0.532,0.456
		c-3.382,5.395-9.233,16.945-9.917,17.781c-0.342,0.418-0.684,0.456-0.836,0.456c-0.722,0-1.064-0.836-1.33-1.368
		c-4.103-8.435-9.574-17.136-9.878-17.325c-0.038-0.038-0.076-0.038-0.114-0.038c-0.114,0-0.152,0.114-0.152,0.189
		c-0.152,2.66-0.228,5.243-0.228,7.903c0,1.596,0.114,7.333,0.228,7.713c0.38,1.254,3.571-0.114,3.571,1.71
		c0,0.342-0.152,0.873-0.684,0.873c-0.152,0-2.127-0.228-4.559-0.228s-4.407,0.228-4.56,0.228c-0.266,0-0.684-0.151-0.684-0.836
		c0-1.14,0.912-1.025,2.812-1.253c1.254-0.152,1.102-0.95,1.216-2.014c0.57-6.764,0.95-15.274,0.95-16.984
		c0-0.493-0.228-0.722-0.418-0.949c-0.57-0.608-1.444-2.28-3.647-2.317c-0.266-0.038-0.76-0.038-0.76-0.685
		c0-0.798,0.418-0.836,0.684-0.836h5.471c0.532,0,0.722,0.114,0.95,0.494l7.181,12.006l4.445,7.067
		c0.076,0.152,0.304,0.456,0.646,0.456c0.266,0,0.418-0.152,0.532-0.418c10.296-19.264,10.258-19.264,10.296-19.264
		c0.152-0.266,0.342-0.342,0.684-0.342h5.509c0.266,0,0.57,0.038,0.57,0.836c0,1.026-0.912,0.76-2.963,1.406
		c-0.608,0.151-0.912,0.418-0.912,1.102c0.152,14.742,0.19,16.604,0.19,18.465v0.267c0,0.949,0.038,1.71,1.33,1.861
		c1.672,0.152,2.432,0,2.432,1.102c0,0.494-0.304,0.836-0.76,0.836c-0.19,0-2.28-0.228-4.901-0.228
		c-2.583,0-4.673,0.228-4.825,0.228C159.875,31.562,159.723,30.992,159.723,30.65z"/>
	<path fill="#FFFFFF" d="M171.621,23.849c0-5.167,3.268-8.776,8.131-8.776c2.735,0,4.825,1.368,4.825,2.812
		c0,0.874-0.722,1.444-1.52,1.444c-1.748,0-2.394-2.28-4.597-2.28c-2.318,0-4.332,2.66-4.332,5.852c0,3.533,2.508,6.687,6.003,6.687
		c2.963,0,3.761-2.052,4.635-2.052c0.342,0,0.646,0.267,0.646,0.646c0,0.228-0.114,0.456-0.228,0.607
		c-1.216,1.672-3.419,3.229-6.269,3.229C174.546,32.018,171.621,28.522,171.621,23.849z"/>
	<path fill="#FFFFFF" d="M191.798,5.688c2.394,0,3.571-0.151,3.951-0.151c0.304,0,0.646,0.113,0.646,0.722
		c0,1.14-0.455,1.025-2.393,1.216c-0.533,0.038-0.608,0.342-0.608,0.646v20.518c0,0.38,0,0.874,0.684,0.949
		c2.128,0.152,3.002-0.038,3.002,0.874c0,0.456-0.114,1.102-0.761,1.102c-0.151,0-2.241-0.228-4.824-0.228
		c-2.584,0-4.712,0.228-4.864,0.228c-0.57,0-0.608-0.455-0.646-0.873c-0.038-0.114-0.038-0.229-0.038-0.343
		c0-0.798,0.532-0.646,3.191-0.835c0.684-0.038,0.798-0.418,0.798-1.064V8.689c0-0.229,0.038-0.418,0.038-0.532
		c0-0.798-0.532-0.684-2.508-0.798c-0.456-0.038-0.874-0.151-0.874-0.798c0-0.456,0.19-1.063,0.836-1.063
		C187.58,5.498,189.442,5.688,191.798,5.688z"/>
	<path fill="#FFFFFF" d="M208.061,5.574c0.608,0,0.646,0.418,0.646,1.025c0,0.76-0.418,0.874-0.836,0.874
		c-2.584,0.076-3.115-0.19-3.115,1.102v19.264c0,0.646,0.076,1.216,0.987,1.216H213h0.114c0.646,0,1.444-0.038,2.09-1.026
		c0.38-0.569,1.368-2.964,1.596-3.229c0.151-0.189,0.342-0.304,0.569-0.304c0.229,0,1.141,0.114,1.141,0.874
		c0,0.189-0.494,3.571-0.76,5.356c-0.076,0.418-0.152,0.836-1.026,0.836c-0.532,0-7.333-0.228-15.844-0.228h-2.014
		c-0.493,0-0.608-0.304-0.608-0.608c0-0.76,0.457-0.76,2.09-1.102c0.836-0.228,0.875-0.722,0.875-1.216v-0.114V8.348
		c0-1.064-0.494-0.874-2.129-0.912c-0.493-0.038-0.949-0.19-0.949-0.912s0.266-0.949,0.722-0.949c0.418,0,1.71,0.075,4.331,0.113
		h0.267C206.199,5.688,207.605,5.574,208.061,5.574z"/>
	<path fill="#FFFFFF" d="M220.412,5.27c2.127,0,3.229-0.113,3.57-0.113c0.685,0,0.685,0.607,0.685,0.949
		c0,1.406-1.938,0.342-2.622,1.178c-0.151,0.19-0.189,0.418-0.189,0.494c0,0.19,0.038,0.342,0.113,0.494
		c2.166,6.801,2.813,8.473,5.928,16.831c0.113,0.305,0.342,0.685,0.57,0.685c0.418,0,0.304,0,4.064-9.499
		c0.039-0.152,0.076-0.304,0.076-0.456v-0.038c0-0.304-0.037-0.342-2.508-7.484c-0.493-1.444-0.418-1.33-2.659-1.444
		c-0.38,0-0.646-0.151-0.646-0.836c0-0.569,0.342-0.873,0.873-0.873c0.381,0,1.559,0.113,3.914,0.113h0.038
		c2.317,0,3.495-0.113,3.875-0.113c0.532,0,0.646,0.342,0.646,0.836c0,0.76-0.379,0.722-1.633,0.873
		c-0.608,0.076-1.178,0.229-1.178,0.95c0,0.152,0.037,0.304,0.076,0.494c2.659,8.017,6.344,16.907,6.838,17.591
		c0.114,0.152,0.267,0.343,0.457,0.343h0.037c0.342,0,0.532-0.456,0.608-0.685c3.761-7.94,6.269-16.793,6.269-17.629
		c0-0.95-0.873-0.874-2.508-1.064c-0.684-0.075-0.76-0.418-0.76-0.873c0-0.456,0.114-0.836,0.684-0.836
		c0.381,0,1.521,0.113,3.838,0.113h0.038c2.241,0,3.382-0.113,3.762-0.113s0.646,0.189,0.646,0.873c0,1.482-1.976,0.305-2.773,1.748
		c-0.266,0.494-2.926,9.347-9.119,22.568c-0.493,1.103-0.911,1.824-1.557,1.824c-0.76,0-1.254-1.063-1.596-2.014
		c-4.521-11.437-4.484-11.513-4.674-11.513c-0.076,0-0.114,0.076-0.152,0.152c-5.167,13.374-4.863,12.994-5.434,13.26
		c-0.113,0.076-0.228,0.114-0.342,0.114c-0.836,0-1.102-1.254-1.481-2.128c-5.167-12.652-7.675-21.505-7.979-22.303
		c-0.494-1.178-1.672-0.342-2.204-0.987c-0.037-0.038-0.189-0.229-0.189-0.532c0-0.418,0.189-1.063,0.949-1.063
		C217.105,5.156,218.208,5.27,220.412,5.27z"/>
	<path fill="#FFFFFF" d="M273.001,11.843c0,3.8-3.306,5.927-4.331,6.308c-0.076,0.037-0.189,0.075-0.189,0.189
		c0,0.076,0.037,0.114,0.075,0.152c4.673,5.471,5.585,8.055,7.029,9.765c0.532,0.607,1.253,1.216,2.052,1.216
		c0.987,0,1.14-0.836,1.633-0.836c0.229,0,0.381,0.189,0.381,0.418c0,0.569-1.102,2.773-3.306,2.773
		c-2.014,0-3.571-2.166-4.027-2.773l-3.8-5.396c-3.381-4.711-3.268-4.56-3.495-4.711c-0.19-0.152-0.38-0.152-0.646-0.152h-2.774
		c-0.342,0-0.532,0.114-0.532,0.57v8.776v0.114c0,0.455,0.039,1.102,0.988,1.216c2.546,0.228,3.457,0.075,3.457,1.253
		c0,0.494-0.266,0.836-0.76,0.836c-0.151,0-2.279-0.228-4.9-0.228c-2.622,0-4.712,0.228-4.863,0.228
		c-0.57,0-0.685-0.569-0.685-1.025c0-0.836,0.608-0.76,2.356-0.912c0.911-0.113,1.025-0.569,1.025-1.33V8.651
		c0-1.216-0.57-1.178-3.191-1.634c-0.381-0.076-0.57-0.228-0.57-0.608c0-0.569,0.152-0.722,0.494-0.722h1.33
		c3.381,0,5.889-0.456,8.396-0.456C270.987,5.231,273.001,9.184,273.001,11.843z M263.389,6.714c-0.494,0-1.938,0.113-2.279,0.38
		c-0.19,0.114-0.229,0.342-0.229,0.607c0,0.038,0.038,0.076,0.038,0.114v8.929c0,0.684,0.267,0.684,2.508,0.684
		c1.368,0,2.432-0.113,3.495-0.531c1.596-0.646,3.115-2.128,3.115-4.407C270.037,9.449,267.227,6.714,263.389,6.714z"/>
	<path fill="#FFFFFF" d="M280.946,31.562c-0.608,0-0.761-0.493-0.761-0.798c0-1.025,0.57-0.987,1.711-1.14
		c1.215-0.151,1.596-0.531,2.165-1.823c1.823-4.065,3.762-8.131,5.813-12.158c5.699-10.829,5.434-10.448,5.889-10.829
		c0.266-0.189,0.57-0.304,0.912-0.304c0.988,0,1.443,1.064,1.596,1.444l5.471,12.613c4.143,10.069,3.99,9.841,4.218,10.183
		c0.95,1.406,2.622,0.57,2.85,1.482c0.038,0.151,0.076,0.418,0.076,0.493c0,0.494-0.267,0.836-0.76,0.836
		c-0.152,0-2.052-0.228-4.37-0.228c-2.734,0-4.064,0.228-4.521,0.228c-0.531,0-0.76-0.266-0.76-0.646
		c0-1.178,0.418-1.063,2.242-1.292c0.189-0.038,0.76-0.076,0.76-0.722c0-0.684-1.367-5.205-2.85-8.587
		c-0.152-0.342-0.342-0.38-0.684-0.38h-8.929c-0.418,0-0.646,0.038-0.874,0.456c-1.861,3.457-3.306,7.447-3.306,8.207
		c0,1.063,0.798,1.025,2.394,1.216c0.342,0.038,0.836,0.151,0.836,0.911c0,0.494-0.342,0.836-0.836,0.836
		c-0.418,0-1.672-0.228-4.18-0.228C282.808,31.334,281.061,31.562,280.946,31.562z M299.525,17.694c0-0.38-2.773-6.915-3.344-7.827
		c-0.113-0.19-0.228-0.266-0.418-0.266c-0.342,0-0.57,0.38-0.722,0.646c-2.355,4.407-3.876,7.333-3.876,7.561
		c0,0.076,0.076,0.152,0.229,0.152h7.789C299.373,17.96,299.525,17.922,299.525,17.694z"/>
	<path fill="#FFFFFF" d="M317.387,5.688c2.395,0,3.572-0.151,3.951-0.151c0.305,0,0.646,0.113,0.646,0.722
		c0,1.14-0.456,1.025-2.394,1.216c-0.532,0.038-0.608,0.342-0.608,0.646v20.518c0,0.38,0,0.874,0.684,0.949
		c2.129,0.152,3.002-0.038,3.002,0.874c0,0.456-0.113,1.102-0.76,1.102c-0.152,0-2.242-0.228-4.825-0.228s-4.712,0.228-4.863,0.228
		c-0.569,0-0.608-0.455-0.646-0.873c-0.038-0.114-0.038-0.229-0.038-0.343c0-0.798,0.532-0.646,3.191-0.835
		c0.684-0.038,0.798-0.418,0.798-1.064V8.689c0-0.229,0.038-0.418,0.038-0.532c0-0.798-0.532-0.684-2.508-0.798
		c-0.456-0.038-0.874-0.151-0.874-0.798c0-0.456,0.189-1.063,0.836-1.063C313.17,5.498,315.031,5.688,317.387,5.688z"/>
	<path fill="#FFFFFF" d="M336.918,31.334c-2.736,0-5.016,0.228-5.168,0.228c-0.607,0-0.76-0.455-0.76-0.987
		c0-0.95,0.418-0.798,2.773-1.026c1.141-0.113,1.293-0.646,1.293-1.405V8.879c0-0.531-0.039-1.178-1.026-1.178h-5.661
		c-1.025,0-1.178,0.229-1.443,0.76c-1.559,3.078-1.596,3.534-2.318,3.534c-0.494,0-0.836-0.418-0.836-0.95v-0.038
		c0-0.228,0.039-0.342,1.102-5.243c0.115-0.532,0.494-0.569,0.799-0.569h22.15c0.607,0,0.684,0.38,0.76,0.873
		c0.76,3.876,0.912,4.636,0.912,4.863c0,0.456-0.305,0.836-0.723,0.836c-0.493,0-0.721-0.456-0.873-0.722
		c-1.786-3.115-1.71-3.344-2.888-3.344h-5.585c-0.799,0-0.836,0.532-0.836,1.026v19.909c0,0.987,0.494,0.836,3.457,1.102
		c0.608,0.076,0.684,0.304,0.684,1.063c0,0.38-0.151,0.76-0.646,0.76C341.895,31.562,339.691,31.334,336.918,31.334z"/>
	<path fill="#FFFFFF" d="M350.941,31.562c-0.608,0-0.76-0.455-0.76-1.025c0-0.836,0.494-0.722,2.583-0.874
		c0.912-0.076,0.988-0.569,0.988-1.216V8.348c0-1.216-0.798-1.14-1.938-1.292c-0.684-0.114-1.672,0.038-1.672-0.798
		c0-0.266,0.152-1.026,0.875-1.026c0.455,0,1.785,0.076,4.445,0.076h0.113c2.736,0,4.104-0.076,4.56-0.076
		c0.569,0,0.646,0.343,0.722,0.798c0,0.114,0.038,0.229,0.038,0.343c0,0.76-0.569,0.646-2.888,0.798
		c-0.76,0.038-0.873,0.456-0.873,1.14v6.269c0,0.305,0.075,0.532,0.493,0.532h12.843c0.607,0,0.646-0.38,0.646-0.684V8.804
		c0-0.646-0.038-1.368-0.798-1.634c-0.988-0.418-2.697,0.189-2.697-1.026c0-0.569,0.304-0.912,0.912-0.912
		c0.379,0,1.557,0.076,3.912,0.076c2.698,0,4.826-0.151,4.979-0.151c0.455,0,0.721,0.304,0.721,0.76
		c0,1.102-0.836,0.987-2.621,1.254c-0.949,0.113-1.025,0.607-1.025,1.102v19.947v0.189c0,0.456,0.076,1.14,1.063,1.216
		c1.444,0.114,2.355-0.038,2.355,0.95c0,0.456-0.151,0.987-0.76,0.987c-0.151,0-2.165-0.228-4.636-0.228
		c-2.469,0-4.445,0.228-4.597,0.228c-0.494,0-0.608-0.38-0.608-0.76c0-1.178,0.381-0.987,2.697-1.178
		c1.064-0.038,1.141-0.607,1.141-1.443V17.884c0-0.342-0.152-0.418-0.494-0.418h-12.956c-0.494,0-0.569,0.267-0.569,0.646v10.296
		c0,0.532,0,1.064,1.823,1.254c0.569,0.076,1.862-0.038,1.862,0.836c0,0.646-0.115,1.063-0.608,1.063
		c-0.114,0-2.128-0.228-4.598-0.228C353.068,31.334,351.094,31.562,350.941,31.562z"/>
</g>
</svg>
