<?xml version="1.0" standalone="no"?>
<!DOCTYPE svg PUBLIC "-//W3C//DTD SVG 20010904//EN"
 "http://www.w3.org/TR/2001/REC-SVG-20010904/DTD/svg10.dtd">
<svg version="1.0" xmlns="http://www.w3.org/2000/svg"
 width="1024.000000pt" height="1024.000000pt" viewBox="0 0 1024.000000 1024.000000"
 preserveAspectRatio="xMidYMid meet">
<metadata>
Created by potrace 1.11, written by Peter Selinger 2001-2013
</metadata>
<g transform="translate(0.000000,1024.000000) scale(0.100000,-0.100000)"
fill="#000000" stroke="none">
<path d="M0 5120 l0 -5120 5120 0 5120 0 0 5120 0 5120 -5120 0 -5120 0 0
-5120z m5031 4003 c1 -17 2 -17 6 0 4 14 17 17 90 17 65 0 84 -3 80 -13 -3 -7
3 -13 13 -13 11 0 16 6 12 14 -4 11 13 13 99 7 165 -10 253 -23 257 -35 3 -9
6 -9 12 0 6 10 31 9 116 -5 264 -40 642 -134 629 -155 -3 -4 3 -6 12 -4 36 10
427 -146 613 -242 1043 -544 1794 -1506 2064 -2644 71 -301 96 -500 103 -831
6 -283 -4 -463 -37 -687 -153 -1027 -690 -1945 -1513 -2590 -607 -475 -1344
-761 -2145 -833 -196 -17 -644 -6 -841 20 -382 52 -766 160 -1101 311 l-115
51 60 -5 c494 -44 907 -30 1290 43 835 161 1587 556 2181 1146 172 171 269
281 390 442 457 608 732 1288 830 2050 21 163 30 665 15 835 -36 397 -139 859
-236 1053 -58 116 -194 330 -300 471 -342 456 -771 832 -1273 1116 -336 190
-809 362 -1175 428 -46 9 -64 16 -55 21 8 6 2 7 -17 3 -16 -3 -73 2 -125 10
-52 9 -113 17 -135 18 -32 1 -27 3 20 7 144 14 175 13 176 -6z"/>
<path d="M5150 9105 c0 -8 4 -15 8 -15 5 0 9 7 9 15 0 8 -4 15 -9 15 -4 0 -8
-7 -8 -15z"/>
<path d="M5266 9104 c-4 -9 -5 -17 -4 -18 2 -1 13 -7 25 -13 29 -17 34 -16 27
2 -4 8 -15 15 -25 15 -12 0 -16 5 -13 15 4 8 4 15 1 15 -3 0 -8 -7 -11 -16z"/>
<path d="M5433 9105 c-3 -9 -3 -18 -1 -21 3 -3 8 4 11 16 6 23 -1 27 -10 5z"/>
<path d="M5180 9091 c0 -6 5 -13 10 -16 6 -3 10 -2 10 4 0 5 10 12 23 14 16 3
13 5 -10 6 -18 0 -33 -3 -33 -8z"/>
<path d="M5365 9080 c-3 -5 -2 -10 4 -10 5 0 13 5 16 10 3 6 2 10 -4 10 -5 0
-13 -4 -16 -10z"/>
<path d="M5565 9080 c3 -5 8 -10 11 -10 2 0 4 5 4 10 0 6 -5 10 -11 10 -5 0
-7 -4 -4 -10z"/>
<path d="M5452 9043 c-1 -14 1 -23 5 -19 10 10 14 46 5 46 -4 0 -9 -12 -10
-27z"/>
<path d="M5420 9050 c-9 -6 -10 -10 -3 -10 6 0 15 5 18 10 8 12 4 12 -15 0z"/>
<path d="M5370 9046 c0 -2 7 -7 16 -10 8 -3 12 -2 9 4 -6 10 -25 14 -25 6z"/>
<path d="M5556 9034 c-5 -14 -4 -15 9 -4 17 14 19 20 6 20 -5 0 -12 -7 -15
-16z"/>
<path d="M5788 9023 c7 -3 16 -2 19 1 4 3 -2 6 -13 5 -11 0 -14 -3 -6 -6z"/>
<path d="M5478 9013 c7 -3 16 -2 19 1 4 3 -2 6 -13 5 -11 0 -14 -3 -6 -6z"/>
<path d="M5775 9000 c-3 -5 -1 -10 4 -10 6 0 11 5 11 10 0 6 -2 10 -4 10 -3 0
-8 -4 -11 -10z"/>
<path d="M5820 8990 c0 -5 5 -10 10 -10 6 0 10 5 10 10 0 6 -4 10 -10 10 -5 0
-10 -4 -10 -10z"/>
<path d="M6165 8980 c3 -5 8 -10 11 -10 2 0 4 5 4 10 0 6 -5 10 -11 10 -5 0
-7 -4 -4 -10z"/>
<path d="M5895 8959 c-4 -6 -5 -12 -2 -15 2 -3 7 2 10 11 7 17 1 20 -8 4z"/>
<path d="M6331 8904 c0 -11 3 -14 6 -6 3 7 2 16 -1 19 -3 4 -6 -2 -5 -13z"/>
</g>
</svg>
